<?xml version="1.0" encoding="utf-8"?>
<!-- Generator: Adobe Illustrator 19.1.0, SVG Export Plug-In . SVG Version: 6.00 Build 0)  -->
<svg version="1.1" id="Capa_1" xmlns="http://www.w3.org/2000/svg" xmlns:xlink="http://www.w3.org/1999/xlink" x="0px" y="0px"
	 viewBox="-50 142 510 510" style="enable-background:new -50 142 510 510;" xml:space="preserve">
<g>
	<g id="post-instagram">
		<path d="M409,142H1c-28,0-51,22.9-51,51v408c0,28,23,51,51,51h408c28,0,51-23,51-51V193C460,164.9,437,142,409,142z M205,295
			c56.1,0,102,45.9,102,102s-45.9,102-102,102s-102-45.9-102-102S148.9,295,205,295z M13.8,601C6.1,601,1,595.9,1,588.2V371.5h53.6
			C52,379.1,52,389.4,52,397c0,84.1,68.9,153,153,153s153-68.9,153-153c0-7.6,0-17.9-2.5-25.5H409v216.8c0,7.7-5.1,12.8-12.8,12.8
			H13.8z M409,256.8c0,7.6-5.1,12.8-12.8,12.8h-51c-7.6,0-12.8-5.1-12.8-12.8v-51c0-7.6,5.1-12.8,12.8-12.8h51
			c7.6,0,12.8,5.1,12.8,12.8V256.8z"/>
	</g>
</g>
</svg>
